<?xml version="1.0" encoding="utf-8"?>
<!-- Generator: Adobe Illustrator 25.0.0, SVG Export Plug-In . SVG Version: 6.00 Build 0)  -->
<svg version="1.1" id="Layer_2" xmlns="http://www.w3.org/2000/svg" xmlns:xlink="http://www.w3.org/1999/xlink" x="0px" y="0px"
	 viewBox="0 0 500 500" style="enable-background:new 0 0 500 500;" xml:space="preserve">
<rect x="45.5" y="388.1" transform="matrix(0.8786 -0.4775 0.4775 0.8786 -178.716 87.1487)" style="fill:#FFFFFF;" width="73.2" height="14"/>
<rect x="-3.9" y="346.1" transform="matrix(0.8786 -0.4775 0.4775 0.8786 -161.8415 69.4811)" style="fill:#FFFFFF;" width="119.3" height="14"/>
<g>
	<rect x="305.7" y="11.7" style="fill:#FFFFFF;" width="23.2" height="14"/>
	<rect x="352" y="11.7" style="fill:#FFFFFF;" width="23.2" height="14"/>
	<path style="fill:#FFFFFF;" d="M282.6,25.7l0-14c-11.4,0-21.2,8.1-23.3,19.3l13.7,2.6C273.9,29,277.9,25.7,282.6,25.7z"/>
	<rect x="398.3" y="11.7" style="fill:#FFFFFF;" width="23.2" height="14"/>
	<rect x="444.6" y="11.7" style="fill:#FFFFFF;" width="23.2" height="14"/>
	<rect x="406.8" y="238.9" style="fill:#FFFFFF;" width="23.2" height="14"/>
	<rect x="258.9" y="55.5" style="fill:#FFFFFF;" width="14" height="23.2"/>
	<path style="fill:#FFFFFF;" d="M486,229.1c0,0.6-0.1,1.2-0.2,1.8l13.7,2.6c0.3-1.4,0.4-2.9,0.4-4.4v-20h-14V229.1z"/>
	<rect x="486" y="70.2" style="fill:#FFFFFF;" width="14" height="23.2"/>
	<rect x="486" y="162.8" style="fill:#FFFFFF;" width="14" height="23.2"/>
	<rect x="486" y="116.5" style="fill:#FFFFFF;" width="14" height="23.2"/>
	<polygon style="fill:#FFFFFF;" points="453.1,238.9 453.1,252.9 476.3,252.9 476.2,238.9 	"/>
	<path style="fill:#FFFFFF;" d="M494.5,20.3l-10.7,8.9c1,1.2,2.3,3.3,2.3,6.2V47h14V35.5C500,29.9,498,24.6,494.5,20.3z"/>
	<path style="fill:#FFFFFF;" d="M420.2,369.5l36.3-36.3c1.8-1.8,2.5-4.6,1.7-7.1c-0.8-2.5-2.9-4.3-5.5-4.8l-78.5-13.3v-55.1h9.4v-14
		h-9.4v-91.2c0-13.1-10.7-23.8-23.8-23.8h-77.6v-22.1h-14v22.1h-102c-13.1,0-23.8,10.7-23.8,23.8v193.6c0,13.1,10.7,23.8,23.8,23.8
		h123.8l-2.5-14H156.9c-5.4,0-9.8-4.4-9.8-9.8V147.7c0-5.4,4.4-9.8,9.8-9.8h193.6c5.4,0,9.8,4.4,9.8,9.8v157.9l12.9,2.2l-96.3-16.4
		c-2.2-0.4-4.5,0.3-6.1,1.9c0,0,0,0,0,0c-1.6,1.6-2.3,3.9-1.9,6.2l31.4,174.3c0.5,2.6,2.3,4.7,4.8,5.4c2.5,0.8,5.2,0.1,7-1.7
		l34.8-34.8l38.6,38.6c9.3,9.3,24.3,9.3,33.6,0l39.7-39.7c9.3-9.3,9.3-24.3,0-33.6L420.2,369.5z M448.9,431.8l-39.7,39.7
		c-3.8,3.8-10,3.8-13.8,0l-43.5-43.5c-2.7-2.7-7.2-2.7-9.9,0l-30.3,30.3l-27.3-151.4l152.7,25.9l-31.7,31.7c-2.7,2.7-2.7,7.2,0,9.9
		l43.5,43.5C452.7,421.8,452.7,428,448.9,431.8z"/>
</g>
</svg>
